<?xml version="1.0" standalone="no"?>
<!DOCTYPE svg PUBLIC "-//W3C//DTD SVG 20010904//EN"
 "http://www.w3.org/TR/2001/REC-SVG-20010904/DTD/svg10.dtd">
<svg version="1.0" xmlns="http://www.w3.org/2000/svg"
 width="86.000000pt" height="126.000000pt" viewBox="0 0 86.000000 126.000000"
 preserveAspectRatio="xMidYMid meet">
<metadata>
Created by potrace 1.15, written by Peter Selinger 2001-2017
</metadata>
<g transform="translate(0.000000,126.000000) scale(0.100000,-0.100000)"
fill="#000000" stroke="none">
<path d="M66 1218 c15 -50 51 -71 143 -83 41 -6 62 -15 83 -36 l29 -28 -3
-423 -3 -423 -27 -50 c-37 -66 -47 -79 -85 -98 -44 -23 -72 -21 -116 9 -47 31
-67 26 -67 -19 0 -45 15 -57 72 -57 103 0 209 88 276 227 l37 78 3 218 4 217
50 0 c79 0 92 -14 118 -120 18 -75 32 -100 61 -115 55 -29 123 -13 149 35 19
36 -22 100 -65 100 -43 0 -42 -46 1 -75 32 -20 31 -43 -3 -51 -38 -10 -74 14
-100 66 -31 63 -38 124 -24 195 21 100 56 159 157 265 52 53 94 100 94 104 0
3 -155 6 -345 6 l-344 0 -40 40 c-45 45 -66 52 -55 18z m562 -136 c0 -18 7
-41 16 -51 21 -23 21 -21 -18 -88 -19 -33 -38 -71 -41 -86 -7 -26 -9 -27 -81
-27 l-74 0 -1 33 c-4 81 4 204 14 222 15 30 23 33 107 31 l78 -1 0 -33z"/>
</g>
</svg>
